#tb 0: 1/25
0,          2,          2,        1,   518400, 0x99d0df36
0,          4,          4,        1,   518400, 0xa8601c1a
0,          6,          6,        1,   518400, 0x4a17d235
0,          8,          8,        1,   518400, 0x75f23abf
0,         10,         10,        1,   518400, 0x746aad53
0,         12,         12,        1,   518400, 0xb0b8913e
0,         14,         14,        1,   518400, 0x60a27f57
0,         16,         16,        1,   518400, 0xfa227f3e
0,         18,         18,        1,   518400, 0x7a1e57c2
0,         20,         20,        1,   518400, 0xcbbaa84f
0,         22,         22,        1,   518400, 0xf9c1bd13
0,         24,         24,        1,   518400, 0x9e80caaf
0,         26,         26,        1,   518400, 0x14cc6928
0,         28,         28,        1,   518400, 0xca0353ef
0,         30,         30,        1,   518400, 0xcad65e5f
0,         32,         32,        1,   518400, 0xd5bc47b3
0,         34,         34,        1,   518400, 0xa9893d36
0,         36,         36,        1,   518400, 0x69bd9085
0,         38,         38,        1,   518400, 0xff33c476
0,         40,         40,        1,   518400, 0x9538adf7
0,         42,         42,        1,   518400, 0xd4ff3b62
0,         44,         44,        1,   518400, 0x021a11fd
0,         46,         46,        1,   518400, 0x293e6f9f
0,         48,         48,        1,   518400, 0x5d38e4c3
0,         50,         50,        1,   518400, 0xd1f4ad49
0,         52,         52,        1,   518400, 0xf13dd946
0,         54,         54,        1,   518400, 0x0359e9ff
0,         56,         56,        1,   518400, 0xb61098ad
0,         58,         58,        1,   518400, 0xa855b11c
0,         59,         59,        1,   518400, 0x7fcf9343
